HIERARCHY
ROOT Hips
{
  OFFSET 0.000000 0.000000 0.000000
  CHANNELS 6 Xposition Yposition Zposition Zrotation Yrotation Xrotation
  JOINT Spine
  {
    OFFSET 0.762862 23.197727 -6.058858
    CHANNELS 3 Zrotation Yrotation Xrotation
    JOINT Chest
    {
      OFFSET 0.762862 23.197727 -6.058858
      CHANNELS 3 Zrotation Yrotation Xrotation
      JOINT Neck
      {
        OFFSET -0.270074 9.229822 -3.797407
        CHANNELS 3 Zrotation Yrotation Xrotation
        JOINT Head
        {
          OFFSET 0.225285 8.430608 -7.939136
          CHANNELS 3 Zrotation Yrotation Xrotation
          End Site
          {
            OFFSET 0.067585 2.529182 -2.381741
          }
        }
      }
      JOINT LeftShoulder
      {
        OFFSET 17.595006 0.044015 0.996102
        CHANNELS 3 Zrotation Yrotation Xrotation
        JOINT LeftArm
        {
          OFFSET 3.473531 -23.049457 3.982832
          CHANNELS 3 Zrotation Yrotation Xrotation
          JOINT LeftForeArm
          {
            OFFSET 3.218371 -22.980839 -10.241008
            CHANNELS 3 Zrotation Yrotation Xrotation
            JOINT LeftHand
            {
              OFFSET -0.008887 -5.924601 -2.989147
              CHANNELS 3 Zrotation Yrotation Xrotation
              End Site
              {
                OFFSET -0.002666 -1.777380 -0.896744
              }
            }
          }
        }
      }
      JOINT RightShoulder
      {
        OFFSET -17.595006 -0.044015 -0.996102
        CHANNELS 3 Zrotation Yrotation Xrotation
        JOINT RightArm
        {
          OFFSET -5.553442 -24.118242 6.751946
          CHANNELS 3 Zrotation Yrotation Xrotation
          JOINT RightForeArm
          {
            OFFSET -3.099014 -24.977112 -8.059516
            CHANNELS 3 Zrotation Yrotation Xrotation
            JOINT RightHand
            {
              OFFSET 0.298828 -5.701374 -2.573080
              CHANNELS 3 Zrotation Yrotation Xrotation
              End Site
              {
                OFFSET 0.089648 -1.710412 -0.771924
              }
            }
          }
        }
      }
    }
  }
  JOINT LeftUpLeg
  {
    OFFSET 11.990773 -0.614304 0.788698
    CHANNELS 3 Zrotation Yrotation Xrotation
    JOINT LeftLeg
    {
      OFFSET -5.144974 -41.347031 -0.530598
      CHANNELS 3 Zrotation Yrotation Xrotation
      JOINT LeftFoot
      {
        OFFSET 2.709190 -35.138144 18.775504
        CHANNELS 3 Zrotation Yrotation Xrotation
        End Site
        {
          OFFSET 0.812757 -10.541443 5.632651
        }
      }
    }
  }
  JOINT RightUpLeg
  {
    OFFSET -11.990773 0.614304 -0.788698
    CHANNELS 3 Zrotation Yrotation Xrotation
    JOINT RightLeg
    {
      OFFSET 0.284998 -37.357294 5.081156
      CHANNELS 3 Zrotation Yrotation Xrotation
      JOINT RightFoot
      {
        OFFSET 4.690763 -28.563407 28.545631
        CHANNELS 3 Zrotation Yrotation Xrotation
        End Site
        {
          OFFSET 1.407229 -8.569022 8.563689
        }
      }
    }
  }
}
MOTION
Frames: 10
Frame Time: 0.083333
0.000000 60.000000 0.000000 0.000000 0.000000 0.000000 0.000000 0.000000 0.000000 0.000000 0.000000 0.000000 0.000000 0.000000 0.000000 8.888091 17.878383 -4.226120 0.000000 0.000000 0.000000 0.000000 0.000000 0.000000 0.000000 0.000000 0.000000 -9.236434 -17.525707 -15.344444 0.000000 0.000000 0.000000 0.000000 0.000000 0.000000 0.000000 0.000000 0.000000 -8.703084 17.340222 -15.584756 0.000000 0.000000 0.000000 0.000000 0.000000 0.000000 -8.556557 0.864251 15.292664 0.000000 0.000000 0.000000 0.000000 0.000000 0.000000 -8.277720 0.943813 14.348379
0.000000 60.000000 0.000000 0.000000 0.000000 0.000000 0.000000 0.000000 0.000000 0.000000 0.000000 0.000000 0.000000 0.000000 0.000000 8.883530 17.873901 -4.232984 0.000000 0.000000 0.000000 0.000000 0.000000 0.000000 0.000000 0.000000 0.000000 -9.223442 -17.558008 -15.332550 0.000000 0.000000 0.000000 0.000000 0.000000 0.000000 0.000000 0.000000 0.000000 -8.707876 17.352012 -15.580617 0.000000 0.000000 0.000000 0.000000 0.000000 0.000000 -8.559665 0.857402 15.290190 0.000000 0.000000 0.000000 0.000000 0.000000 0.000000 -8.266968 0.934799 14.315952
0.000000 60.000000 0.000000 0.000000 0.000000 0.000000 0.000000 0.000000 0.000000 0.000000 0.000000 0.000000 0.000000 0.000000 0.000000 8.939825 17.930506 -4.078198 0.000000 0.000000 0.000000 0.000000 0.000000 0.000000 0.000000 0.000000 0.000000 -9.596203 -16.847422 -15.309673 0.000000 0.000000 0.000000 0.000000 0.000000 0.000000 0.000000 0.000000 0.000000 -8.735031 17.409297 -15.588989 0.000000 0.000000 0.000000 0.000000 0.000000 0.000000 -8.573068 0.898679 15.475356 0.000000 0.000000 0.000000 0.000000 0.000000 0.000000 -8.605008 0.903006 15.719085
0.000000 60.000000 0.000000 0.000000 0.000000 0.000000 0.000000 0.000000 0.000000 0.000000 0.000000 0.000000 0.000000 0.000000 0.000000 8.961956 17.954899 -4.009972 0.000000 0.000000 0.000000 0.000000 0.000000 0.000000 0.000000 0.000000 0.000000 -9.892622 -16.389138 -15.181624 0.000000 0.000000 0.000000 0.000000 0.000000 0.000000 0.000000 0.000000 0.000000 -8.774511 17.498694 -15.582518 0.000000 0.000000 0.000000 0.000000 0.000000 0.000000 -8.619056 0.853711 15.614121 0.000000 0.000000 0.000000 0.000000 0.000000 0.000000 -8.782588 0.791326 16.485995
0.000000 60.000000 0.000000 0.000000 0.000000 0.000000 0.000000 0.000000 0.000000 0.000000 0.000000 0.000000 0.000000 0.000000 0.000000 8.987449 15.188281 -3.977341 0.000000 0.000000 0.000000 0.000000 0.000000 0.000000 0.000000 0.000000 0.000000 -10.350516 -15.814522 -14.978031 0.000000 0.000000 0.000000 0.000000 0.000000 0.000000 0.000000 0.000000 0.000000 -8.779379 17.505991 -15.597746 0.000000 0.000000 0.000000 0.000000 0.000000 0.000000 -8.685717 0.737727 15.710396 0.000000 0.000000 0.000000 0.000000 0.000000 0.000000 -8.836238 0.673758 16.647354
0.000000 60.000000 0.000000 0.000000 0.000000 0.000000 0.000000 0.000000 0.000000 0.000000 0.000000 0.000000 0.000000 0.000000 0.000000 9.020424 2.693863 -3.900127 0.000000 0.000000 0.000000 0.000000 0.000000 0.000000 0.000000 0.000000 0.000000 -11.038193 -15.081607 -14.657065 0.000000 0.000000 0.000000 0.000000 0.000000 0.000000 0.000000 0.000000 0.000000 -8.787384 17.522659 -15.602058 0.000000 0.000000 0.000000 0.000000 0.000000 0.000000 -8.755176 0.591924 15.752447 0.000000 0.000000 0.000000 0.000000 0.000000 0.000000 -8.858634 0.601175 16.676092
0.000000 60.000000 0.000000 0.000000 0.000000 0.000000 0.000000 0.000000 0.000000 0.000000 0.000000 0.000000 0.000000 0.000000 0.000000 9.082119 -17.894883 -3.807249 0.000000 0.000000 0.000000 0.000000 0.000000 0.000000 0.000000 0.000000 0.000000 -11.474033 -14.761296 -14.402256 0.000000 0.000000 0.000000 0.000000 0.000000 0.000000 0.000000 0.000000 0.000000 -8.775190 17.490312 -15.619658 0.000000 0.000000 0.000000 0.000000 0.000000 0.000000 -8.780777 0.505830 15.656059 0.000000 0.000000 0.000000 0.000000 0.000000 0.000000 -8.841636 0.599121 16.497625
0.000000 60.000000 0.000000 0.000000 0.000000 0.000000 0.000000 0.000000 0.000000 0.000000 0.000000 0.000000 0.000000 0.000000 0.000000 9.153255 -17.803660 -3.790299 0.000000 0.000000 0.000000 0.000000 0.000000 0.000000 0.000000 0.000000 0.000000 -11.588772 -14.653502 -14.372946 0.000000 0.000000 0.000000 0.000000 0.000000 0.000000 0.000000 0.000000 0.000000 -8.722648 17.362102 -15.656703 0.000000 0.000000 0.000000 0.000000 0.000000 0.000000 -8.781006 0.498475 15.619822 0.000000 0.000000 0.000000 0.000000 0.000000 0.000000 -8.811670 0.715523 16.465654
0.000000 60.000000 0.000000 0.000000 0.000000 0.000000 0.000000 0.000000 0.000000 0.000000 0.000000 0.000000 0.000000 0.000000 0.000000 9.211982 -17.730255 -3.815568 0.000000 0.000000 0.000000 0.000000 0.000000 0.000000 0.000000 0.000000 0.000000 -11.403118 -14.768543 -14.492065 0.000000 0.000000 0.000000 0.000000 0.000000 0.000000 0.000000 0.000000 0.000000 -8.710604 17.327697 -15.678299 0.000000 0.000000 0.000000 0.000000 0.000000 0.000000 -8.769374 0.580754 15.822893 0.000000 0.000000 0.000000 0.000000 0.000000 0.000000 -8.725382 1.101024 16.625465
0.000000 60.000000 0.000000 0.000000 0.000000 0.000000 0.000000 0.000000 0.000000 0.000000 0.000000 0.000000 0.000000 0.000000 0.000000 9.205285 -17.739698 -3.824693 0.000000 0.000000 0.000000 0.000000 0.000000 0.000000 0.000000 0.000000 0.000000 -10.998127 -15.085259 -14.702416 0.000000 0.000000 0.000000 0.000000 0.000000 0.000000 0.000000 0.000000 0.000000 -8.691763 17.273357 -15.707435 0.000000 0.000000 0.000000 0.000000 0.000000 0.000000 -8.742215 0.702440 16.008880 0.000000 0.000000 0.000000 0.000000 0.000000 0.000000 -8.649233 1.271609 16.485436
